<?xml version="1.0" encoding="UTF-8"?>
<svg width="32" height="32" viewBox="0 0 40 40" fill="none" xmlns="http://www.w3.org/2000/svg">
  <!-- Hourglass Frame -->
  <path d="M12 6
           C12 6, 28 6, 28 6
           S28 10, 28 12
           C28 17, 20 18, 20 20
           C20 22, 28 23, 28 30
           S28 32, 28 32
           C28 32, 12 32, 12 32
           S12 30, 12 30
           C12 23, 20 22, 20 20
           C20 18, 12 17, 12 12
           S12 6, 12 6
           Z" 
        stroke="#000000" 
        stroke-width="2.5" 
        fill="none"/>

  <!-- Upper Chamber -->
  <path d="M13 7
           L27 7
           S27 10, 27 12
           C27 16, 20 17, 20 20
           C20 17, 13 16, 13 12
           Z" 
        fill="#3B82F6" 
        opacity="0.1"/>

  <!-- Lower Chamber (Filled with Sand) -->
  <path d="M13 30
           C13 24, 20 23, 20 20
           C20 23, 27 24, 27 30
           L27 31
           L13 31
           Z" 
        fill="#3B82F6" 
        opacity="0.8"/>
        
  <!-- Additional Sand Layer for Depth -->
  <path d="M13.5 30
           C13.5 25, 20 24, 20 21
           C20 24, 26.5 25, 26.5 30
           L26.5 30.5
           L13.5 30.5
           Z" 
        fill="#3B82F6" 
        opacity="0.6"/>

  <!-- Center Point -->
  <circle cx="20" cy="20" r="1.25" fill="#1E40AF"/>

  <!-- Sand Surface -->
  <path d="M13 31 Q20 29.5 27 31" 
        fill="#3B82F6" 
        opacity="0.9"/>
</svg>